<?xml version="1.0" encoding="utf-8"?>
<!-- Generator: Adobe Illustrator 23.0.6, SVG Export Plug-In . SVG Version: 6.00 Build 0)  -->
<svg version="1.1" id="Layer_1" xmlns="http://www.w3.org/2000/svg" xmlns:xlink="http://www.w3.org/1999/xlink" x="0px" y="0px"
	 width="254.8781px" height="124.4655px" viewBox="0 0 254.8781 124.4655" style="enable-background:new 0 0 254.8781 124.4655;"
	 xml:space="preserve">
<style type="text/css">
	.st0{fill:#E31019;}
	.st1{fill:#757273;}
	.st2{fill:#1D1D1B;}
	.st3{fill:#FFFFFF;}
</style>
<rect x="212.84314" y="43.19667" class="st0" width="42.03496" height="42.03436"/>
<g>
	<g>
		<path class="st0" d="M73.65308,0.19197v85.03906h-17.7906V46.98125H17.7313v38.24979H0V0.19197h17.7313V30.5546h38.13118V0.19197
			H73.65308z"/>
		<path class="st0" d="M107.45522,0.13267v68.67171h42.0451v16.42665H89.66461V0.13267H107.45522z"/>
	</g>
	<path class="st0" d="M192.64311,16.69146h-42.08578V0.09727h62.28677v15.87255l-34.0296,69.26122h-21.04289L192.64311,16.69146z"/>
	<path class="st1" d="M223.03845,4.41552h0.93233c0.18311,0,0.364-0.00513,0.54124-0.01832
		c0.17429-0.01245,0.3347-0.04833,0.47163-0.10692c0.13771-0.05859,0.24608-0.14647,0.32666-0.26512
		c0.07983-0.11718,0.1201-0.28416,0.1201-0.50314c0-0.1831-0.03734-0.33323-0.1062-0.44675
		c-0.07176-0.11279-0.16551-0.19847-0.28343-0.25706c-0.1201-0.05859-0.25119-0.09594-0.39767-0.11279
		c-0.14575-0.01758-0.29147-0.02636-0.4343-0.02636h-1.17036V4.41552z M222.28632,2.00013h1.98549
		c0.65472,0,1.13811,0.1245,1.44717,0.37132c0.31201,0.24754,0.46654,0.64376,0.46654,1.18938
		c0,0.4863-0.13989,0.84224-0.41454,1.06928c-0.27757,0.2263-0.61812,0.36106-1.01874,0.40207l1.55923,2.39049h-0.81807
		l-1.48528-2.32751h-0.96968v2.32751h-0.75214V2.00013z M220.06866,4.70481c0,0.56247,0.1062,1.08393,0.30907,1.56657
		c0.2058,0.48337,0.48923,0.90229,0.84956,1.25823c0.36107,0.35667,0.78145,0.63863,1.25896,0.84297
		c0.47751,0.20579,0.9953,0.30906,1.54752,0.30906s1.07001-0.10327,1.54826-0.30906c0.47749-0.20434,0.89496-0.48777,1.25603-0.8481
		c0.36327-0.36252,0.64595-0.78731,0.84956-1.278c0.20581-0.48997,0.30907-1.02094,0.30907-1.59146
		c0-0.56247-0.10326-1.08612-0.30907-1.57242c-0.20361-0.4863-0.4863-0.90814-0.84956-1.26409
		c-0.36107-0.35667-0.77853-0.6357-1.25603-0.83711c-0.47826-0.2014-0.99605-0.30173-1.54826-0.30173
		s-1.07001,0.10326-1.54752,0.3076c-0.47751,0.20579-0.89789,0.4863-1.25896,0.8437
		c-0.36034,0.35594-0.64377,0.77999-0.84956,1.27068C220.17487,3.5916,220.06866,4.12697,220.06866,4.70481 M219.31653,4.70481
		c0-0.67085,0.12596-1.29338,0.3779-1.8683c0.25119-0.57346,0.58882-1.07147,1.01799-1.4904
		c0.42625-0.41891,0.92722-0.74776,1.49626-0.98871C222.77847,0.11865,223.38782,0,224.03377,0
		c0.63791,0,1.24506,0.11865,1.81705,0.35741c0.57491,0.24095,1.07587,0.56686,1.50504,0.98285
		c0.42625,0.41526,0.76607,0.90595,1.01801,1.47208c0.25195,0.5654,0.37791,1.17987,0.37791,1.84267
		c0,0.67086-0.12596,1.29265-0.37791,1.86757c-0.25194,0.57565-0.59175,1.07293-1.01801,1.49259
		c-0.42917,0.41893-0.93013,0.74776-1.50504,0.98652c-0.57199,0.23876-1.17914,0.35887-1.81705,0.35887
		c-0.64595,0-1.25529-0.12011-1.82509-0.35887c-0.56905-0.23876-1.07001-0.56613-1.49626-0.98139
		c-0.42917-0.41452-0.7668-0.90523-1.01799-1.47135C219.44249,5.98208,219.31653,5.36835,219.31653,4.70481"/>
</g>
<g>
	<g>
		<path class="st2" d="M17.75127,121.37863h-2.11944l-2.04401-4.6123h-9.4993l-2.06915,4.6123H0.00003l7.95302-17.5771h1.8452
			L17.75127,121.37863z M8.85074,106.09557l-3.98932,8.90053h7.95349L8.85074,106.09557z"/>
		<path class="st2" d="M26.82361,108.5386v1.64545H22.7598v11.19457H20.8401v-11.19457h-1.77024v-1.67013h1.77024v-1.12212
			c0-2.81738,1.42103-4.31291,3.88921-4.31291c0.89769,0,1.49599,0.09964,2.11897,0.32407v1.67013
			c-0.69794-0.19928-1.22128-0.32406-1.86987-0.32406c-1.49553,0-2.24376,0.89769-2.24376,2.74242v1.04715H26.82361z"/>
		<path class="st2" d="M35.72274,108.5386v1.64545h-4.06381v11.19457h-1.91969v-11.19457H27.969v-1.67013h1.77024v-1.12212
			c0-2.81738,1.42103-4.31291,3.88921-4.31291c0.89769,0,1.49599,0.09964,2.11944,0.32407v1.67013
			c-0.69794-0.19928-1.22175-0.32406-1.86987-0.32406c-1.49599,0-2.24376,0.89769-2.24376,2.74242v1.04715H35.72274z"/>
		<path class="st2" d="M37.96557,105.6714v-2.11897h2.19394v2.11897H37.96557z M38.09035,121.37863v-12.88985h1.91969v12.88985
			H38.09035z"/>
		<path class="st2" d="M44.39699,121.37863v-18.20009h1.9197v18.20009H44.39699z"/>
		<path class="st2" d="M50.57885,105.6714v-2.11897h2.1944v2.11897H50.57885z M50.70363,121.37863v-12.88985h1.91969v12.88985
			H50.70363z"/>
		<path class="st2" d="M57.5839,110.95697l-0.57363-1.5705c1.42103-0.64812,2.81739-1.07229,4.68726-1.07229
			c3.51533,0,5.48484,1.79538,5.48484,5.18592v7.87852h-1.84473v-1.94483c-0.89769,1.17193-2.39368,2.21908-4.66211,2.21908
			c-2.39368,0-4.81204-1.34653-4.81204-4.03914c0-2.74242,2.24376-4.18813,5.50998-4.18813
			c1.64545,0,2.81738,0.22395,3.96417,0.54848v-0.44884c0-2.31872-1.42103-3.51533-3.83939-3.51533
			C59.97712,110.00993,58.78051,110.40849,57.5839,110.95697z M57.80832,117.53925c0,1.64545,1.49553,2.59296,3.24109,2.59296
			c2.36854,0,4.31292-1.44617,4.31292-3.49065v-1.24643c-0.94704-0.27424-2.21862-0.54848-3.78957-0.54848
			C59.15439,114.84664,57.80832,115.89379,57.80832,117.53925z"/>
		<path class="st2" d="M73.49134,117.71384c0,1.5705,0.87254,2.14412,2.16926,2.14412c0.64812,0,1.19661-0.12478,1.86988-0.44884
			v1.64545c-0.67327,0.34921-1.39635,0.54848-2.31873,0.54848c-2.06915,0-3.64011-1.02248-3.64011-3.64011v-7.77888h-1.79491
			v-1.69527h1.79491v-3.88921h1.91969v3.88921h4.08896v1.69527h-4.08896V117.71384z"/>
		<path class="st2" d="M86.03338,120.00742c1.77024,0,3.01666-0.72308,4.06381-1.82005l1.19661,1.07229
			c-1.29625,1.44571-2.8672,2.41836-5.31024,2.41836c-3.54047,0-6.43235-2.71774-6.43235-6.73174
			c0-3.73975,2.61764-6.73174,6.18279-6.73174c3.81471,0,6.00865,3.0418,6.00865,6.83138c0,0.17461,0,0.37389-0.02467,0.5983
			H81.49558C81.76982,118.43647,83.76448,120.00742,86.03338,120.00742z M89.79827,114.2232
			c-0.19975-2.3434-1.54581-4.38788-4.1141-4.38788c-2.24376,0-3.93903,1.86987-4.18859,4.38788H89.79827z"/>
		<path class="st2" d="M123.20181,111.70519c3.88968,0.8474,5.68459,2.26891,5.68459,4.9615
			c0,3.01667-2.49332,4.96104-5.95883,4.96104c-2.7671,0-5.036-0.92236-7.13029-2.79224l1.22175-1.44617
			c1.82005,1.64592,3.56515,2.46864,5.98351,2.46864c2.3434,0,3.88921-1.22175,3.88921-2.99199
			c0-1.64545-0.87254-2.56782-4.53734-3.34072c-4.01399-0.87255-5.85918-2.16927-5.85918-5.06114
			c0-2.79271,2.41836-4.7869,5.73441-4.7869c2.54314,0,4.3632,0.72309,6.13343,2.14412l-1.14725,1.52067
			c-1.62031-1.32139-3.24108-1.89455-5.036-1.89455c-2.2689,0-3.71461,1.24642-3.71461,2.84206
			C118.46519,109.96011,119.36242,110.88247,123.20181,111.70519z"/>
		<path class="st2" d="M144.96565,118.83549l3.39055-10.34671h1.99464l-4.5378,12.98949h-1.67012l-3.46552-10.1721l-3.49065,10.1721
			h-1.69528l-4.51265-12.98949h2.04448l3.39053,10.34671l3.46552-10.39653h1.59563L144.96565,118.83549z"/>
		<path class="st2" d="M153.33958,105.6714v-2.11897h2.19394v2.11897H153.33958z M153.46436,121.37863v-12.88985h1.91971v12.88985
			H153.46436z"/>
		<path class="st2" d="M162.18936,117.71384c0,1.5705,0.87254,2.14412,2.16879,2.14412c0.64859,0,1.19707-0.12478,1.86987-0.44884
			v1.64545c-0.67281,0.34921-1.39589,0.54848-2.31825,0.54848c-2.06963,0-3.64011-1.02248-3.64011-3.64011v-7.77888h-1.79538
			v-1.69527h1.79538v-3.88921h1.91969v3.88921h4.08896v1.69527h-4.08896V117.71384z"/>
		<path class="st2" d="M168.96953,110.10957v-1.62078h10.8705v1.22176l-8.57693,10.04732h8.57693v1.62077h-11.16942v-1.22175
			l8.55132-10.04732H168.96953z"/>
		<path class="st2" d="M188.34294,120.00742c1.77023,0,3.01666-0.72308,4.06381-1.82005l1.19661,1.07229
			c-1.29625,1.44571-2.8672,2.41836-5.31024,2.41836c-3.54048,0-6.43236-2.71774-6.43236-6.73174
			c0-3.73975,2.61765-6.73174,6.18279-6.73174c3.81471,0,6.00865,3.0418,6.00865,6.83138c0,0.17461,0,0.37389-0.02515,0.5983
			h-10.22192C184.07938,118.43647,186.07404,120.00742,188.34294,120.00742z M192.10736,114.2232
			c-0.19928-2.3434-1.54581-4.38788-4.11363-4.38788c-2.24376,0-3.93903,1.86987-4.1886,4.38788H192.10736z"/>
		<path class="st2" d="M199.08681,121.37863h-1.91969v-12.88985h1.91969v3.36587c0.94751-2.14411,2.81738-3.68993,5.26088-3.59029
			v2.06962h-0.14992c-2.81738,0-5.11096,2.01933-5.11096,5.90855V121.37863z"/>
		<path class="st2" d="M207.18835,121.37863v-18.20009h1.91969v18.20009H207.18835z"/>
		<path class="st2" d="M214.06816,110.95697l-0.57317-1.5705c1.42104-0.64812,2.81738-1.07229,4.68726-1.07229
			c3.51534,0,5.48485,1.79538,5.48485,5.18592v7.87852h-1.84473v-1.94483c-0.89769,1.17193-2.39369,2.21908-4.66258,2.21908
			c-2.39322,0-4.81158-1.34653-4.81158-4.03914c0-2.74242,2.24376-4.18813,5.50999-4.18813
			c1.64545,0,2.81691,0.22395,3.96417,0.54848v-0.44884c0-2.31872-1.42151-3.51533-3.83986-3.51533
			C216.46184,110.00993,215.26523,110.40849,214.06816,110.95697z M214.29257,117.53925c0,1.64545,1.496,2.59296,3.24109,2.59296
			c2.36855,0,4.31339-1.44617,4.31339-3.49065v-1.24643c-0.94751-0.27424-2.21909-0.54848-3.78957-0.54848
			C215.63911,114.84664,214.29257,115.89379,214.29257,117.53925z"/>
		<path class="st2" d="M229.42479,121.37863h-1.91969v-12.88985h1.91969v2.24376c0.84787-1.39589,2.19394-2.518,4.41301-2.518
			c3.1163,0,4.93637,2.0943,4.93637,5.16078v8.0033h-1.91971v-7.52932c0-2.39368-1.29623-3.88921-3.56514-3.88921
			c-2.21909,0-3.86453,1.62031-3.86453,4.03867V121.37863z"/>
		<path class="st2" d="M252.9584,121.37863v-2.59296c-1.04715,1.54581-2.56783,2.8672-4.93637,2.8672
			c-3.09163,0-6.15811-2.4435-6.15811-6.7066c0-4.23841,3.06648-6.73174,6.15811-6.73174c2.39322,0,3.93904,1.29671,4.93637,2.74242
			v-7.77843h1.91969v18.20009H252.9584z M248.37077,109.93496c-2.49286,0-4.53732,1.84473-4.53732,4.98618
			c0,3.06695,2.09428,5.01132,4.53732,5.01132c2.39369,0,4.66258-1.99419,4.66258-5.01132
			C253.03336,111.92962,250.76447,109.93496,248.37077,109.93496z"/>
	</g>
	<rect x="103.41619" y="101.4958" class="st2" width="1.54477" height="22.96969"/>
</g>
<polygon class="st3" points="229.66541,60.01835 228.3929,60.01835 223.69344,60.01835 219.67432,60.01835 219.67432,63.76028 
	219.67432,68.40936 224.2226,68.40936 228.3929,68.40936 229.66541,68.40936 229.66541,73.65058 229.66541,78.40045 
	233.77272,78.40045 238.05641,78.40045 238.05641,73.29781 238.05641,68.40936 243.31024,68.40936 248.04752,68.40936 
	248.04752,64.30205 248.04752,60.01835 242.22672,60.01835 238.05641,60.01835 238.05641,50.02725 233.40735,50.02725 
	229.66541,50.02725 "/>
</svg>
